
<svg width="448px" height="160px" viewBox="0 0 448 160" version="1.1" xmlns="http://www.w3.org/2000/svg" xmlns:xlink="http://www.w3.org/1999/xlink">
    <!-- Generator: Sketch 51.2 (57519) - http://www.bohemiancoding.com/sketch -->
    <desc>Created with Sketch.</desc>
    <defs>
        <path d="M247.487728,24.1669004 L256.104839,24.1669004 L256.104839,62.8541374 L246.590112,62.8541374 L246.590112,59.0841515 C242.999649,62.1360449 238.332048,63.9312763 233.3054,63.9312763 C221.90568,63.9312763 212.75,54.7755961 212.75,43.4656381 C212.75,32.0659187 221.90568,23 233.3054,23 C238.332048,23 242.999649,24.7952314 246.590112,27.8471248 L247.487728,24.1669004 Z M241.832749,50.9158485 C243.807504,48.8513324 244.794881,46.2482468 244.794881,43.4656381 C244.794881,40.6830295 243.807504,37.9901823 241.832749,36.0154278 C239.947756,34.0406732 237.434432,32.9635344 234.741585,32.9635344 C232.048738,32.9635344 229.535414,34.0406732 227.560659,36.0154278 C225.675666,37.9901823 224.598527,40.6830295 224.598527,43.4656381 C224.598527,46.2482468 225.675666,48.8513324 227.560659,50.9158485 C229.535414,52.8906031 232.048738,53.9677419 234.741585,53.9677419 C237.434432,53.9677419 239.947756,52.8906031 241.832749,50.9158485 Z M193.937588,24.2356241 L195.553296,28.6339411 C198.425666,24.8639551 203.542076,23.2482468 208.658485,23.2482468 C210.902525,23.2482468 213.146564,23.6072931 215.21108,24.3253857 L210.812763,34.2889201 C204.260168,31.4165498 197.617812,35.3660589 196.450912,41.5596073 L196.450912,62.9228612 L185.230715,62.9228612 L185.230715,24.2356241 L193.937588,24.2356241 Z M158.99439,23.0687237 C170.932679,23.0687237 180.447405,32.2244039 180.447405,43.5343619 C180.447405,54.9340813 170.932679,64 158.99439,64 C147.145863,64 137.631136,54.9340813 137.631136,43.5343619 C137.631136,32.2244039 147.145863,23.0687237 158.99439,23.0687237 Z M166.265077,51.0743338 C168.15007,49.0098177 169.137447,46.3169705 169.137447,43.4446003 C169.137447,40.6619916 168.15007,38.058906 166.265077,36.0841515 C164.290323,34.0196353 161.86676,32.9424965 159.084151,32.9424965 C156.481066,32.9424965 153.87798,34.0196353 152.082749,36.0841515 C150.018233,38.058906 149.030856,40.7517532 149.030856,43.5343619 C149.030856,46.4067321 150.018233,49.0098177 152.082749,51.0743338 C153.87798,53.0490884 156.481066,54.1262272 159.084151,54.1262272 C161.86676,54.1262272 164.290323,53.0490884 166.265077,51.0743338 Z M118.863604,24.2356241 L120.479313,28.6339411 C123.351683,24.8639551 128.468093,23.2482468 133.584502,23.2482468 C135.828541,23.2482468 138.072581,23.6072931 140.137097,24.3253857 L135.73878,34.2889201 C129.186185,31.4165498 122.543829,35.3660589 121.376928,41.5596073 L121.376928,62.9228612 L110.156732,62.9228612 L110.156732,24.2356241 L118.863604,24.2356241 Z M103.443899,24.2356241 L103.443899,43.4446003 C103.443899,54.8443198 93.5701262,64 83.157784,64 C72.6556802,64 62.871669,54.8443198 62.871669,43.4446003 L62.871669,24.2356241 L74.3611501,24.2356241 L74.3611501,43.1753156 C74.3611501,45.8681627 75.3485273,48.3814867 76.7847125,50.1767181 C78.5799439,52.0617111 80.9137447,53.1388499 83.157784,53.1388499 C85.4018233,53.1388499 87.7356241,52.0617111 89.441094,50.1767181 C90.9670407,48.3814867 91.954418,45.8681627 91.954418,43.1753156 L91.954418,24.2356241 L103.443899,24.2356241 Z M32.0448808,0 L35.7251052,0 L65.4361851,62.9228612 L51.5231417,62.9228612 L33.5708275,24.684432 L14.0925666,62.9228612 L0,62.9228612 L32.0448808,0 Z" id="path-1"></path>
        <linearGradient x1="1.03018863e-05%" y1="14.4975935%" x2="0%" y2="100%" id="linearGradient-3">
            <stop stop-color="#322A9C" stop-opacity="0" offset="0%"></stop>
            <stop stop-color="#322A9C" stop-opacity="0.5" offset="50.9618858%"></stop>
            <stop stop-color="#C86DD7" offset="100%"></stop>
        </linearGradient>
        <linearGradient x1="0%" y1="15.2877808%" x2="98.7694184%" y2="84.9466682%" id="linearGradient-4">
            <stop stop-color="#322A9C" stop-opacity="0" offset="0%"></stop>
            <stop stop-color="#322A9C" stop-opacity="0.51" offset="50.9618858%"></stop>
            <stop stop-color="#C86DD7" offset="100%"></stop>
        </linearGradient>
    </defs>
    <g id="Branding" stroke="none" stroke-width="1" fill="none" fill-rule="evenodd">
        <g id="Horizontal">
            <g id="Name" transform="translate(192.000000, 48.000000)">
                <g id="Dark-Sky">
                    <mask id="mask-2" fill="white">
                        <use xlink:href="#path-1"></use>
                    </mask>
                    <use id="Mask" fill="#000000" xlink:href="#path-1"></use>
                    <g mask="url(#mask-2)" fill="#182230" fill-rule="nonzero" id="Swatch">
                        <rect x="0" y="0" width="256" height="64"></rect>
                    </g>
                </g>
            </g>
            <g id="Icon-(Purple)">
                <rect id="Background" fill="#182230" x="0" y="0" width="160" height="160" rx="10"></rect>
                <g id="Aurora-Graphic" stroke-width="1" transform="translate(35.000000, 0.000000)">
                    <g id="Purple-Aurora-(Rev)" transform="translate(0.000000, 60.000000)" fill="url(#linearGradient-3)">
                        <polygon id="Rectangle-3" points="0 20 30 10 30 70 0 80"></polygon>
                    </g>
                    <g id="Purple-Aurora-(Rev)" transform="translate(30.000000, 40.000000)" fill="url(#linearGradient-3)">
                        <polygon id="Rectangle-3" points="0 20 30 10 30 70 0 80"></polygon>
                    </g>
                    <g id="Purple-Aurora" transform="translate(60.000000, 20.000000)" fill="url(#linearGradient-4)">
                        <polygon id="Rectangle-3" points="0 20 30 10 30 70 0 80"></polygon>
                    </g>
                    <g id="Purple-Aurora" transform="translate(30.000000, 10.000000)" fill="url(#linearGradient-4)">
                        <polygon id="Rectangle-3" points="0 20 30 10 30 70 0 80"></polygon>
                    </g>
                    <g id="Purple-Aurora" fill="url(#linearGradient-4)">
                        <polygon id="Rectangle-3" points="0 20 30 10 30 70 0 80"></polygon>
                    </g>
                </g>
            </g>
        </g>
    </g>
</svg>
